<svg width="1152" height="700" viewBox="0 0 1152 700" fill="none" xmlns="http://www.w3.org/2000/svg">
<rect width="1152" height="700" fill="url(#paint0_linear)"/>
<mask id="mask0" mask-type="alpha" maskUnits="userSpaceOnUse" x="0" y="0" width="1152" height="700">
<rect width="1152" height="700" fill="url(#paint1_linear)"/>
</mask>
<g mask="url(#mask0)">
<circle cx="718" cy="805" r="195" stroke="#78AEFF" stroke-opacity="0.1" stroke-width="80"/>
<circle cx="-28" cy="-60" r="195" stroke="#78AEFF" stroke-opacity="0.1" stroke-width="80"/>
<path d="M662.508 5.94196L658.482 11.7745C648.563 26.1433 644.709 43.8435 647.757 61.0354C651.26 80.8003 663.526 97.9155 681.116 107.585L695.235 115.347C700.991 118.511 707.045 121.101 713.309 123.078L791.302 147.695C833.755 161.094 880.048 153.559 916.059 127.387L939.111 110.634C962.774 93.4363 976.245 65.5265 974.99 36.3015L972.405 -23.8956C971.845 -36.9336 961.112 -47.2155 948.062 -47.2155C941.121 -47.2155 934.51 -44.2553 929.887 -39.0778L919.606 -27.563C895.775 -0.872322 853.687 -1.63015 830.603 -28.9698C814.862 -47.6134 789.2 -54.7874 766.119 -46.8738L704.186 -25.6398C687.273 -19.8412 672.665 -8.77197 662.508 5.94196Z" fill="#8256FF" fill-opacity="0.1"/>
<path d="M745.669 633.152L742.35 651.873C734.742 694.783 708.11 731.94 669.919 752.93L616.602 782.233C608.314 786.788 599.597 790.516 590.578 793.362L287.03 889.15C243.48 902.893 195.993 895.164 159.049 868.32L-14.4609 742.246C-53.5176 713.868 -75.7543 667.805 -73.6823 619.572L-65.5407 430.04C-64.1438 397.522 -37.3743 371.878 -4.82593 371.878C12.4833 371.878 28.9712 379.259 40.5008 392.169L68.2646 423.258C126.583 488.559 229.196 487.14 285.685 420.25L289.913 415.244C328.225 369.879 390.453 352.681 446.623 371.935L623.485 432.559C652.622 442.547 677.789 461.614 695.29 486.96L722.379 526.194C743.919 557.39 752.288 595.823 745.669 633.152Z" fill="#FF42D5" fill-opacity="0.1"/>
<path d="M198.508 -101.058L194.482 -95.2255C184.563 -80.8567 180.709 -63.1565 183.757 -45.9646C187.26 -26.1997 199.526 -9.08447 217.116 0.585388L231.235 8.34695C236.991 11.5112 243.045 14.1005 249.309 16.0776L327.302 40.6949C369.755 54.0945 416.048 46.5589 452.059 20.3868L475.111 3.63367C498.774 -13.5637 512.245 -41.4735 510.99 -70.6985L508.405 -130.896C507.845 -143.934 497.112 -154.215 484.062 -154.215C477.121 -154.215 470.51 -151.255 465.887 -146.078L455.606 -134.563C431.775 -107.872 389.687 -108.63 366.603 -135.97C350.862 -154.613 325.2 -161.787 302.119 -153.874L240.186 -132.64C223.273 -126.841 208.665 -115.772 198.508 -101.058Z" fill="#FF56C6" fill-opacity="0.1"/>
<rect x="179" y="196.085" width="260.951" height="233.397" rx="22" transform="rotate(-30.9194 179 196.085)" fill="#7E5EFF" fill-opacity="0.1"/>
<g filter="url(#filter0_d)">
<path d="M724 480C724 488.284 730.73 495.068 738.982 494.343C778.312 490.885 815.358 473.897 843.501 446.087C875.195 414.768 893 372.291 893 328C893 283.709 875.195 241.232 843.501 209.913C815.358 182.103 778.312 165.115 738.982 161.657C730.73 160.932 724 167.716 724 176L724 328L724 480Z" fill="#EC76FF" fill-opacity="0.1"/>
</g>
<circle cx="1171" cy="553" r="166" fill="#8A78FF" fill-opacity="0.1"/>
<path d="M1075.29 -9.49998C1087.23 -30.1666 1117.06 -30.1667 1128.99 -9.50001L1200.43 114.25C1212.37 134.917 1197.45 160.75 1173.59 160.75H1030.69C1006.83 160.75 991.915 134.917 1003.85 114.25L1075.29 -9.49998Z" fill="#FF42D5" fill-opacity="0.1"/>
<path d="M391.766 722.49C356.726 770.075 289.744 780.244 242.16 745.203C194.575 710.162 184.406 643.181 219.447 595.597C254.488 548.012 260.668 617.879 308.253 652.92C355.838 687.961 426.807 674.905 391.766 722.49Z" fill="#8A78FF" fill-opacity="0.1"/>
</g>
<defs>
<filter id="filter0_d" x="714" y="151.604" width="189" height="352.792" filterUnits="userSpaceOnUse" color-interpolation-filters="sRGB">
<feFlood flood-opacity="0" result="BackgroundImageFix"/>
<feColorMatrix in="SourceAlpha" type="matrix" values="0 0 0 0 0 0 0 0 0 0 0 0 0 0 0 0 0 0 127 0"/>
<feOffset/>
<feGaussianBlur stdDeviation="5"/>
<feColorMatrix type="matrix" values="0 0 0 0 0 0 0 0 0 0 0 0 0 0 0 0 0 0 0.25 0"/>
<feBlend mode="normal" in2="BackgroundImageFix" result="effect1_dropShadow"/>
<feBlend mode="normal" in="SourceGraphic" in2="effect1_dropShadow" result="shape"/>
</filter>
<linearGradient id="paint0_linear" x1="576" y1="0" x2="576" y2="700" gradientUnits="userSpaceOnUse">
<stop stop-color="#450C55"/>
<stop offset="1" stop-color="#0A072B"/>
</linearGradient>
<linearGradient id="paint1_linear" x1="576" y1="0" x2="576" y2="700" gradientUnits="userSpaceOnUse">
<stop stop-color="#450C55"/>
<stop offset="1" stop-color="#0A072B"/>
</linearGradient>
</defs>
</svg>
