<svg width="28" height="28" viewBox="0 0 28 28" fill="none" xmlns="http://www.w3.org/2000/svg">
<path d="M23.6408 15.5709L21.8982 14.8457C22.0238 14.0296 22.0277 13.1853 21.8998 12.3461L23.6447 11.626C23.8412 11.5443 23.9347 11.3191 23.8543 11.1198L22.6054 8.08872C22.5238 7.8923 22.2986 7.79871 22.0992 7.87919L20.3543 8.59937C19.8513 7.91356 19.2535 7.31943 18.5905 6.82877L19.3156 5.08624C19.3974 4.89047 19.3046 4.66228 19.1088 4.58047L16.0805 3.3268C15.8848 3.24499 15.6566 3.3378 15.5748 3.53357L14.8497 5.27611C14.0336 5.15054 13.1892 5.14666 12.3501 5.27451L11.6299 3.52962C11.5482 3.33319 11.3231 3.23961 11.1237 3.32009L8.09265 4.56894C7.89623 4.65059 7.80265 4.87576 7.88312 5.07512L8.6033 6.82001C7.91749 7.32306 7.32337 7.92082 6.8327 8.58388L5.09017 7.85876C4.8944 7.77695 4.66622 7.86976 4.5844 8.06553L3.32956 11.0967C3.24775 11.2925 3.34056 11.5207 3.53633 11.6025L5.27886 12.3276C5.15329 13.1437 5.14942 13.9881 5.27726 14.8272L3.53237 15.5474C3.33595 15.629 3.24237 15.8542 3.32284 16.0536L4.5717 19.0846C4.65335 19.2811 4.87851 19.3746 5.07788 19.2942L6.82277 18.574C7.32582 19.2598 7.92357 19.8539 8.58663 20.3446L7.86151 22.0871C7.7797 22.2829 7.87251 22.5111 8.06828 22.5929L11.0942 23.8524C11.29 23.9342 11.5182 23.8414 11.6 23.6457L12.3251 21.9031C13.1412 22.0287 13.9855 22.0326 14.8247 21.9047L15.5449 23.6496C15.6265 23.846 15.8517 23.9396 16.051 23.8591L19.0821 22.6103C19.2785 22.5286 19.3721 22.3035 19.2916 22.1041L18.5715 20.3592C19.2573 19.8562 19.8514 19.2584 20.342 18.5954L22.0846 19.3205C22.2804 19.4023 22.5085 19.3095 22.5903 19.1137L23.8499 16.0878C23.9294 15.8808 23.8395 15.6538 23.6408 15.5709ZM11.7174 18.259C9.13651 17.2255 7.88173 14.2944 8.9153 11.7135C9.94888 9.13257 12.88 7.8778 15.4609 8.91137C18.0418 9.94495 19.2966 12.876 18.263 15.4569C17.2294 18.0378 14.2983 19.2926 11.7174 18.259Z" fill="#000"/>
</svg>
