<svg width="17" height="12" viewBox="0 0 17 12" fill="none" xmlns="http://www.w3.org/2000/svg">
<path fill-rule="evenodd" clip-rule="evenodd" d="M4.47279 6.70385C4.85899 6.31408 4.85899 5.68592 4.47279 5.29615L0.383889 1.16949C0.171304 0.954943 0.171304 0.60917 0.383889 0.394622C0.599255 0.177268 0.950546 0.177267 1.16591 0.394622L6.02259 5.29615C6.40879 5.68592 6.40879 6.31408 6.02259 6.70385L1.16591 11.6054C0.950546 11.8227 0.599254 11.8227 0.383889 11.6054C0.171304 11.3908 0.171304 11.0451 0.383888 10.8305L4.47279 6.70385Z" fill="#5F76F3"/>
<path fill-rule="evenodd" clip-rule="evenodd" d="M14.1928 6.70385C14.579 6.31408 14.579 5.68592 14.1928 5.29615L10.1039 1.16949C9.89134 0.954943 9.89134 0.60917 10.1039 0.394622C10.3193 0.177268 10.6706 0.177267 10.8859 0.394622L15.7426 5.29615C16.1288 5.68592 16.1288 6.31408 15.7426 6.70385L10.8859 11.6054C10.6706 11.8227 10.3193 11.8227 10.1039 11.6054C9.89134 11.3908 9.89134 11.0451 10.1039 10.8305L14.1928 6.70385Z" fill="#5F76F3" fill-opacity="0.6"/>
</svg>
