<svg id="Layer_1" data-name="Layer 1" xmlns="http://www.w3.org/2000/svg" xmlns:xlink="http://www.w3.org/1999/xlink" viewBox="0 0 200 200"><defs><style>.cls-1{fill:url(#linear-gradient);}</style><linearGradient id="linear-gradient" y1="100" x2="200" y2="100" gradientUnits="userSpaceOnUse"><stop offset="0.15" stop-color="#3840ad"/><stop offset="0.9" stop-color="#4083f2"/></linearGradient></defs><title>icons</title><path class="cls-1" d="M126.67,13.33v60H120V16.67H6.67V183.31l70,0V190L3.33,190A3.33,3.33,0,0,1,0,186.65V13.33A3.33,3.33,0,0,1,3.33,10h120A3.34,3.34,0,0,1,126.67,13.33ZM20,30h86.67v70h6.66V26.67A3.34,3.34,0,0,0,110,23.33H16.67a3.35,3.35,0,0,0-3.34,3.34V173.31a3.34,3.34,0,0,0,3.33,3.34l63.34,0V170l-60,0ZM196.26,186.26a12.75,12.75,0,0,1-18,0L141,149a3.31,3.31,0,0,1,0-4.71l4.31-4.31-3.62-3.62L131.3,146.75a10.4,10.4,0,0,1,1.34,9.92H140a3.33,3.33,0,0,1,3.33,3.33v10.34a16.69,16.69,0,0,1,13.34,16.33,3.34,3.34,0,0,1-3.34,3.33H86.67a3.34,3.34,0,0,1-3.34-3.33,16.69,16.69,0,0,1,13.34-16.33V160a3.33,3.33,0,0,1,3.33-3.33h12L89.71,134.43a10.41,10.41,0,0,1,13.54-15.73L128.7,93.25a10.41,10.41,0,0,1,15.73-13.54l25.86,25.86a10.41,10.41,0,0,1-13.54,15.73l-10.37,10.37,3.62,3.62,4.31-4.31a3.31,3.31,0,0,1,4.71,0l37.24,37.23A12.75,12.75,0,0,1,196.26,186.26ZM134.43,89.71l25.86,25.86a3.73,3.73,0,1,0,5.28-5.28L139.71,84.43a3.68,3.68,0,0,0-2.64-1.1,3.74,3.74,0,0,0-2.64,6.38Zm-14.14,65.86a3.73,3.73,0,1,0,5.28-5.28L99.71,124.43a3.73,3.73,0,1,0-5.28,5.28ZM140,176.67H100a10,10,0,0,0-9.43,6.66h58.86A10,10,0,0,0,140,176.67Zm-36.67-13.34V170h33.34v-6.67Zm27.65-51,4.71-4.72,12.64,12.65,3.62-3.62L133.33,98.05l-25.28,25.28L126.67,142l3.62-3.62-12.65-12.64,4.72-4.71L135,133.62l8.62-8.62Zm60.57,60.57-34.88-34.88-8.62,8.62,5.28,5.28,4.31-4.31,4.72,4.72-4.31,4.31,18.69,18.69,4.31-4.31,4.71,4.71-4.31,4.31,1.48,1.48a6,6,0,0,0,4.31,1.78,6.09,6.09,0,0,0,4.31-10.4ZM28.48,45H62.62a4.17,4.17,0,1,0,0-8.33H28.48a4.17,4.17,0,1,0,0,8.33Zm0,0,0,16.87H62.62a4.17,4.17,0,1,0,0-8.33H28.48a4.17,4.17,0,1,0,0,8.33Zm0,0,0,16.87H72.73a4.17,4.17,0,0,0,0-8.33H28.48a4.17,4.17,0,1,0,0,8.33Zm0,0M27.35,95.57H95.84c1.68,0,3-1.87,3-4.17s-1.36-4.16-3-4.16H27.35c-1.68,0-3,1.86-3,4.16s1.36,4.17,3,4.17Zm0,0,0,16.87H95.84c1.68,0,3-1.87,3-4.17s-1.36-4.16-3-4.16H27.35c-1.68,0-3,1.86-3,4.16s1.36,4.17,3,4.17Zm0,0M60.1,134.76a3,3,0,0,0-4.31.05L45.24,145.64l-3.57-5.89a3,3,0,1,0-5.21,3.15l5.6,9.27a3.06,3.06,0,0,0,2.27,1.45l.34,0a3.07,3.07,0,0,0,2.19-.92l13.3-13.65A3,3,0,0,0,60.1,134.76Zm-4.31.05,13.06,15.61a22,22,0,1,1-4.77-24A22,22,0,0,1,68.85,150.42Zm-5.46-14.58a16.1,16.1,0,1,0-3.49,17.54A16.1,16.1,0,0,0,63.39,135.84Z"/></svg>