<svg id="Layer_1" data-name="Layer 1" xmlns="http://www.w3.org/2000/svg" xmlns:xlink="http://www.w3.org/1999/xlink" viewBox="0 0 200 200"><defs><style>.cls-1{fill:url(#linear-gradient);}</style><linearGradient id="linear-gradient" x1="7.17" y1="100" x2="192.83" y2="100" gradientUnits="userSpaceOnUse"><stop offset="0.15" stop-color="#3840ad"/><stop offset="0.9" stop-color="#4083f2"/></linearGradient></defs><title>icons</title><path class="cls-1" d="M117.13,34.76a3.86,3.86,0,0,0-6.3-3l-21.1,17.5H78.49a3.86,3.86,0,0,0-3.86,3.86V68.51a3.86,3.86,0,0,0,3.86,3.86H89.73l21.08,17.48a3.87,3.87,0,0,0,2.46.89,3.79,3.79,0,0,0,1.65-.37,3.83,3.83,0,0,0,2.21-3.49ZM134.8,79.32a30.91,30.91,0,0,0-.8-38,3.86,3.86,0,0,0-2.8-1.4A3.76,3.76,0,0,0,128.28,41l-.52.52a3.87,3.87,0,0,0-.26,5.16,22.43,22.43,0,0,1,.6,27.49,3.86,3.86,0,0,0,.36,5l.52.52a3.82,3.82,0,0,0,2.72,1.14H132A3.84,3.84,0,0,0,134.8,79.32ZM147.14,27.9a3.83,3.83,0,0,0-2.77-1.3,3.77,3.77,0,0,0-2.85,1.14l-.5.51a3.88,3.88,0,0,0-.15,5.28,41.11,41.11,0,0,1,.68,53.74,3.86,3.86,0,0,0,.23,5.22l.5.51A3.83,3.83,0,0,0,145,94.14h.17A3.79,3.79,0,0,0,148,92.78,49.54,49.54,0,0,0,147.14,27.9ZM119.4,114.17a3.41,3.41,0,0,0-3.41-3.41H70.32a3.41,3.41,0,0,0,0,6.82H116A3.41,3.41,0,0,0,119.4,114.17Zm48,17.13a3.41,3.41,0,0,0-3.41-3.41H70.32a3.41,3.41,0,0,0,0,6.82H164A3.41,3.41,0,0,0,167.36,131.3Zm0,16a3.41,3.41,0,0,0-3.41-3.41H70.32a3.41,3.41,0,1,0,0,6.81H164A3.41,3.41,0,0,0,167.36,147.29ZM191.79,20.37,171.67,1a3.36,3.36,0,0,0-2.36-1H44.84a3.41,3.41,0,0,0-3.41,3.41v9.15H27.7A3.41,3.41,0,0,0,24.29,16V26.26H10.57a3.41,3.41,0,0,0-3.4,3.41V196.59a3.41,3.41,0,0,0,3.4,3.41h144.6a3.41,3.41,0,0,0,3.41-3.41V186.3H172.3a3.41,3.41,0,0,0,3.41-3.41v-9.15h13.72a3.41,3.41,0,0,0,3.4-3.41V22.82A3.37,3.37,0,0,0,191.79,20.37ZM170.43,9.22l12.92,12.47H170.43Zm-18.67,184H14V33.08H24.29V182.89a3.41,3.41,0,0,0,3.41,3.41H151.76Zm17.13-13.7H31.11V19.38H41.43v151a3.41,3.41,0,0,0,3.41,3.41h124ZM186,166.92H48.25V6.82H163.61V25.1A3.41,3.41,0,0,0,167,28.51h19Z"/></svg>