<svg id="Layer_1" data-name="Layer 1" xmlns="http://www.w3.org/2000/svg" xmlns:xlink="http://www.w3.org/1999/xlink" viewBox="0 0 200 200"><defs><style>.cls-1{fill:url(#linear-gradient);}</style><linearGradient id="linear-gradient" y1="100" x2="200" y2="100" gradientUnits="userSpaceOnUse"><stop offset="0.15" stop-color="#3840ad"/><stop offset="0.9" stop-color="#4083f2"/></linearGradient></defs><title>icons</title><path class="cls-1" d="M44.55,23.86c5.13,0,10.27,0,15.41,0,1,0,1.24.28,1.18,1.21a34.25,34.25,0,0,0,0,3.51c0,.72-.24.92-.94.92q-15.75,0-31.5,0c-.73,0-.93-.26-.9-.94,0-1.22.06-2.44,0-3.65-.05-.85.26-1.05,1.07-1.05C34.09,23.88,39.32,23.86,44.55,23.86ZM41.63,12.71c-2.73,0-2.73,0-2.73,2.75s0,2.9,2.85,2.9,2.72,0,2.72-2.77S44.47,12.71,41.63,12.71Zm11.21,0c-2.84,0-2.84,0-2.84,2.91,0,2.74,0,2.74,2.77,2.74s2.82,0,2.82-2.8S55.59,12.71,52.84,12.71Zm-22.31,0c-2.72,0-2.72,0-2.72,2.75s0,2.9,2.84,2.9,2.71,0,2.71-2.76S33.36,12.71,30.53,12.71ZM115.33,135c-1.07,0-1.37-.3-1.37-1.36q.06-12.5,0-25c0-1,.29-1.38,1.37-1.37,7.43,0,14.86,0,22.29,0s14.77,0,22.15,0c1.11,0,1.45.27,1.45,1.41q-.08,11.28,0,22.56c0,1-.23,1.38-1.27,1.56a26.22,26.22,0,0,0-5.91,1.81,5.06,5.06,0,0,1-2.1.36C139.73,135,127.53,135,115.33,135Zm34.78-48.92c0-.86-.28-1.09-1.08-1.05-1.12.06-2.25.05-3.38,0-.76,0-1.12.13-1.11,1,.06,3,.05,6,0,9,0,.85.33,1.11,1.12,1.09q1.76-.06,3.51,0c.71,0,.94-.24.92-.93,0-1.53,0-3.06,0-4.59S150,87.65,150.11,86.12ZM83.54,1.63h55.15a11,11,0,0,1,10.86,7.56.61.61,0,0,1,0,.12c1.08,3,.83,3.41-2.31,3.41h-.14c-2.26,0-2.24,0-3-2a5,5,0,0,0-4.69-3.46c-.4,0-.81,0-1.21,0H28.6A6.52,6.52,0,0,0,25,7.93a5.82,5.82,0,0,0-2.71,5.39c0,8.56,0,17.13,0,25.69,0,1.2-.25,1.72-1.54,1.57a15.51,15.51,0,0,0-3,0c-.84.06-1.08-.22-1.07-1,0-3,0-6,0-9.06,0-5.81.14-11.63,0-17.44A11.36,11.36,0,0,1,28.11,1.59C46.59,1.69,65.06,1.63,83.54,1.63ZM140,162.12A25.46,25.46,0,0,1,144,150.83c0-.09.22-.1.51-.23,0,2.86.35,5.64-.25,8.36a5.12,5.12,0,0,1-3.49,3.65C140.36,162.77,139.87,162.94,140,162.12Zm59.52-2.56a32.37,32.37,0,0,0-6.92-15.05c-.32-.4-.59-.63-1,0-.79,1.45-1.68,2.85-2.52,4.26a1,1,0,0,0,.09,1.19,27.25,27.25,0,0,1,4.13,20.73,27.06,27.06,0,0,1-44.85,14.36,27,27,0,0,1-8.35-15.37c-.15-.78-.16-1.26.91-1.47a11.09,11.09,0,0,0,9.09-11.13c-.11-3-.18-10.72-.22-12.89l.7-.57c3.52-3.12,12.21-6.46,18.34-5.32a26.84,26.84,0,0,1,13.85,5.11c.42.3.62.4.9-.13.73-1.33,1.47-2.65,2.28-3.94.41-.66.24-1-.35-1.4a31.52,31.52,0,0,0-17.43-5.74c-1.11,0-1.41-.26-1.41-1.4.06-8.51,0-17,0-25.55,0-2.62-.92-3.56-3.57-3.61-1.62,0-3.24,0-4.87,0H112.53c-3.27,0-4.13.87-4.13,4.18q0,15.61,0,31.23c0,2.55,1,3.53,3.51,3.53h30.82c.52,0,1.09-.19,1.6.27a34.12,34.12,0,0,0-10.21,18.69,4.19,4.19,0,0,1-.65-2.55q0-3.85,0-7.7a2.86,2.86,0,0,0-1.53-2.8,5.28,5.28,0,0,0-2.52-.35q-52.72,0-105.45,0c-1.35,0-1.75-.33-1.75-1.72.05-17.31,0-34.61,0-51.92,0-.36,0-.72,0-1.08.05-.69-.21-1-.93-.94a19,19,0,0,1-3.11,0c-1.28-.14-1.53.37-1.52,1.56,0,17.53,0,35.06,0,52.59,0,1.2-.31,1.54-1.51,1.52-4-.08-8-.05-12,0-2.1,0-3.18,1.08-3.19,3.15,0,2.88,0,5.77,0,8.65a9.84,9.84,0,0,0,1.65,5.2c2.42,3.73,5.91,5.25,10.31,5.25q60-.06,120.05-.07c1.47,0,1.9.48,2.06,1.78a30.37,30.37,0,0,0,8.12,17.27c8.14,8.74,18.22,12.43,30.08,10.46,10.44-1.73,18.24-7.4,23.46-16.59A32,32,0,0,0,199.49,159.56Zm-71.08,3.25h-1q-57.72,0-115.45,0c-2.6,0-4.68-.73-5.88-3.22a7.77,7.77,0,0,1-.5-3.84c0-1.29-.57-2.93.29-3.75s2.41-.23,3.66-.23H126c1.85,0,1.85,0,1.85,1.92,0,2.82-.26,5.68,1.06,8.35C129.13,162.53,129,162.82,128.41,162.81Zm26.33-6.53a3,3,0,0,1,2.87,1.69c2.79,4.19,5.6,8.37,8.37,12.57.55.85.81,1.11,1.46.05,6.71-10.87,13.42-21.74,20.23-32.55,2.15-3.41,4.32-6.81,6.48-10.22,1.14-1.8,2.89-2.23,4.48-1.17s1.73,2.8.65,4.52c-3.7,5.87-7.42,11.72-11.09,17.6q-9.27,14.83-18.47,29.71c-1.53,2.46-4.05,2.59-5.67.19-3.93-5.84-7.81-11.73-11.72-17.59a2.94,2.94,0,0,1-.22-3.29A2.63,2.63,0,0,1,154.74,156.28ZM143.3,112.79c3.78,0,7.57,0,11.35,0,.81,0,1.14.19,1.09,1-.07,1.21,0,2.43,0,3.65,0,.64-.11,1-.88,1q-11.62,0-23.25,0c-.82,0-1-.36-1-1.06,0-1.17,0-2.34,0-3.51,0-.9.32-1.12,1.2-1.11C135.64,112.82,139.47,112.79,143.3,112.79Zm0,16.75c-3.82,0-7.64,0-11.47,0-.91,0-1.3-.22-1.23-1.19.07-1.12,0-2.25,0-3.37,0-.77.19-1.11,1.06-1.11,7.69,0,15.38,0,23.07,0,.78,0,1,.23,1,1,0,1.21-.06,2.43,0,3.64,0,.89-.31,1-1.1,1C150.87,129.52,147.09,129.54,143.31,129.54ZM125.15,115.7c0,2.74,0,2.74-2.74,2.74-2.9,0-2.9,0-2.9-2.86s0-2.79,2.82-2.79S125.15,112.79,125.15,115.7Zm-2.76,8.2c2.76,0,2.76,0,2.76,2.71,0,2.93,0,2.93-3,2.93-2.69,0-2.69,0-2.69-2.64v-.13C119.51,123.9,119.51,123.9,122.39,123.9Zm-57.11,5.62H31.35c-2.62,0-3.54-.93-3.54-3.58V94c0-2.46,1-3.46,3.41-3.46q34.07,0,68.12,0c2.53,0,3.48,1,3.48,3.54q0,15.94,0,31.89c0,2.58-.94,3.51-3.48,3.51Zm.13-33.3c-10.19,0-20.37,0-30.55,0-1.08,0-1.47.22-1.47,1.39q.07,12.51,0,25c0,1,.18,1.33,1.25,1.33q30.68-.06,61.37,0c1,0,1.27-.32,1.27-1.31q-.06-12.51,0-25c0-1.16-.38-1.41-1.46-1.4C85.69,96.24,75.55,96.22,65.41,96.22Zm-9.86,16.57c5.14,0,10.27,0,15.41,0,1,0,1.4.16,1.31,1.23a29.53,29.53,0,0,0,0,3.52c0,.68-.2.93-.92.93q-15.75,0-31.5,0c-.81,0-1-.31-1-1,.07-1.48-.49-3.41.25-4.32s2.78-.28,4.25-.29C47.44,112.76,51.49,112.79,55.55,112.79Zm12.58-11.11c3.69,0,7.38,0,11.07,0,1.24,0,1.56.37,1.45,1.53a25,25,0,0,0,0,3.24c0,.7-.22.94-.92.94q-11.61,0-23.22,0c-.79,0-1-.32-1-1,0-1.17,0-2.34,0-3.51,0-.89.27-1.15,1.15-1.14C60.48,101.7,64.31,101.68,68.13,101.68Zm16.7,11.11c2,0,4,0,5.92,0,.75,0,1,.2,1,1,0,1.25,0,2.51,0,3.77,0,.71-.26.92-1,.92q-6.06,0-12.13,0c-.63,0-.88-.2-.86-.85,0-1.3,0-2.6,0-3.91,0-.71.25-.92.94-.91C80.78,112.82,82.8,112.79,84.83,112.79ZM44.46,101.68c1.52,0,3,0,4.58,0,.74,0,1.05.17,1,1-.06,1.26,0,2.52,0,3.78,0,.68-.19,1-.91.94-3.1,0-6.21,0-9.31,0-.68,0-1-.18-.94-.91a.66.66,0,0,0,0-.14c0-1.47-.49-3.39.24-4.31s2.78-.2,4.25-.31C43.73,101.65,44.1,101.68,44.46,101.68Zm47.3,2.83c0,2.83,0,2.83-2.81,2.83s-2.78,0-2.78-2.84,0-2.82,2.8-2.82S91.76,101.68,91.76,104.51ZM30.53,85H3.63C.8,85,0,84.17,0,81.36V49.59c0-2.52,1-3.5,3.53-3.5H57.42c2.84,0,3.7.87,3.7,3.71V81.57c0,2.5-.9,3.39-3.42,3.39Zm0-33.3c-7.88,0-15.77,0-23.65,0-.94,0-1.31.16-1.31,1.25q.09,12.49,0,25c0,1.17.21,1.61,1.53,1.6q23.45-.08,46.88,0c1.33,0,1.54-.46,1.53-1.62q-.06-12.36,0-24.72c0-1.18-.3-1.52-1.5-1.51C46.21,51.69,38.37,51.67,30.54,51.67Zm.24,22.12c1.31-3.82,2.53-7.67,3.86-11.48,1.58-4.57,1.61-4.56-3.1-5.74l-.13,0c-.53-.17-.81,0-1,.56q-2.52,7.67-5.1,15.31c-.1.31-.27.64.15.78,1.53.52,3.07,1,4.8,1.57C30.71,74.73,30.67,74.14,30.78,73.79ZM49.19,63.51c-1.63-1.67-3.31-3.3-4.94-5-.47-.48-.78-.43-1.2,0-.93,1-1.87,1.94-2.85,2.87-.43.41-.42.67,0,1.07.82.77,1.57,1.61,2.39,2.38.49.46.56.76,0,1.3-.95,1-2.79,1.9-2.62,3s1.81,2.08,2.81,3.11a1.7,1.7,0,0,1,.19.19c.42.62.79.5,1.27,0,1.59-1.64,3.23-3.25,4.85-4.87a2.86,2.86,0,0,0,0-4.1ZM12,67.61c1.64,1.67,3.32,3.31,5,5,.39.41.65.51,1.08,0,.93-1,1.87-2,2.87-2.86.57-.51.45-.82,0-1.27-.8-.73-1.52-1.55-2.31-2.28-.52-.48-.52-.85,0-1.33.79-.74,1.51-1.54,2.31-2.27.48-.45.63-.76.06-1.28-1-.88-1.88-1.82-2.77-2.76-.42-.45-.71-.55-1.19-.05-1.66,1.72-3.36,3.39-5,5.08a2.53,2.53,0,0,0-.79,2A2.62,2.62,0,0,0,12,67.61ZM116.8,79.55H70.7c-3.3,0-4.15-.85-4.15-4.15q0-26.55,0-53.12a6.38,6.38,0,0,1,.24-2.13A2.65,2.65,0,0,1,69,18.25a12.21,12.21,0,0,1,1.48-.06h92.6a9.17,9.17,0,0,1,1.48.07,2.56,2.56,0,0,1,2.24,2.61V77a2.49,2.49,0,0,1-2.18,2.51,13.08,13.08,0,0,1-1.88.08Zm0-55.56c-14.33,0-28.66,0-43,0-1.17,0-1.52.27-1.52,1.48,0,11.18,0,22.35,0,33.53,0,.42-.24,1,.24,1.24s.73-.26,1.06-.46C80.8,55.46,88,51.19,95.14,46.83a3.69,3.69,0,0,1,4.46.09c7.37,4.85,14.8,9.6,22.18,14.42a2.5,2.5,0,0,0,2.91.26c5.87-3.12,11.82-6.1,17.69-9.24a4.12,4.12,0,0,1,4.52.08c4.22,2.5,8.5,4.89,12.75,7.33,1.47.84,1.51.83,1.51-.81V25.7c0-1.71,0-1.71-1.78-1.71Zm15.08,25a9.87,9.87,0,0,1-9.64-10.25,9.77,9.77,0,0,1,10.35-9.31A9.79,9.79,0,0,1,131.88,49ZM128,39.07a4.08,4.08,0,0,0,4.07,4.15,4.22,4.22,0,0,0,4.13-4,4.14,4.14,0,0,0-4.12-4.11A4,4,0,0,0,128,39.07ZM116.68,73.81h42.45c.32,0,.64,0,1,0,.81.07,1.13-.25,1.1-1.09a39.08,39.08,0,0,1,0-4A2,2,0,0,0,160,66.54q-7.25-4-14.41-8.2a1.86,1.86,0,0,0-2.08-.08c-6.08,3.2-12.2,6.31-18.29,9.49a3.88,3.88,0,0,1-4.38-.19c-7.47-4.92-15-9.73-22.5-14.61a1.74,1.74,0,0,0-2.17,0C89.45,57,82.79,61.17,75.93,65c-2.67,1.49-4.2,3.08-3.54,6.21a3,3,0,0,1,0,1.08c-.21,1.28.36,1.55,1.57,1.55Q95.32,73.78,116.68,73.81Z"/></svg>